<?xml version="1.0" encoding="UTF-8"?>
<svg id="Layer_2" data-name="Layer 2" xmlns="http://www.w3.org/2000/svg" viewBox="0 0 103 103">
  <defs>
    <style>
      .cls-1 {
        fill: #fff;
        stroke-width: 0px;
      }
    </style>
  </defs>
  <g id="Layer_2-2" data-name="Layer 2">
    <g>
      <circle class="cls-1" cx="71.94" cy="70.75" r="3.58"/>
      <circle class="cls-1" cx="31.06" cy="70.75" r="3.58"/>
      <path class="cls-1" d="M36.5,30.53h30c1.75,0,3.19-1.43,3.19-3.19s-1.43-3.19-3.19-3.19h-30c-1.75,0-3.19,1.43-3.19,3.19s1.43,3.19,3.19,3.19Z"/>
      <rect class="cls-1" x="27.21" y="35.84" width="48.58" height="28.14" rx="3.19" ry="3.19"/>
      <path class="cls-1" d="M51.5,0C23.06,0,0,23.06,0,51.5s23.06,51.5,51.5,51.5,51.5-23.06,51.5-51.5S79.94,0,51.5,0ZM80.17,75.39c0,1.71-1.36,3.11-3.05,3.18v6.38h-8.83v-6.37h-33.04v6.37h-8.83v-6.37h-.4c-1.75,0-3.19-1.43-3.19-3.19V21.24c0-1.75,1.43-3.19,3.19-3.19h50.97c1.75,0,3.19,1.43,3.19,3.19v54.15Z"/>
    </g>
  </g>
</svg>